<?xml version="1.0" encoding="utf-8"?>
<!-- Generator: Adobe Illustrator 16.0.0, SVG Export Plug-In . SVG Version: 6.00 Build 0)  -->
<!DOCTYPE svg PUBLIC "-//W3C//DTD SVG 1.1//EN" "http://www.w3.org/Graphics/SVG/1.1/DTD/svg11.dtd">
<svg version="1.1" id="Layer_1" xmlns="http://www.w3.org/2000/svg" xmlns:xlink="http://www.w3.org/1999/xlink" x="0px" y="0px"
	 width="1428.947px" height="519.851px" viewBox="0 0 1428.947 519.851" enable-background="new 0 0 1428.947 519.851"
	 xml:space="preserve">
<path fill-rule="evenodd" clip-rule="evenodd" fill="#0E578A" d="M933.806-775.195c46.134,0,91.873,0,138.219,0
	c6.041,48.15,12.064,96.157,18.086,144.155c16.729-1.755,28.081-17.339,28.754-39.896c-2.422,0-4.852-0.201-7.234,0.047
	c-3.47,0.363-5.007-0.707-5.429-4.454c-3.673-32.594-7.538-65.165-11.323-97.746c-0.07-0.61,0.14-1.255,0.25-2.13
	c52.442,0,104.709,0,157.44,0c0.382,5.144,0.855,10.23,1.122,15.329c1.66,31.812,2.396,63.622-1.975,95.292
	c-4.688,33.971-15.082,65.53-39.875,90.692c-19.64,19.933-44.111,31.264-70.508,38.829c-11.482,3.29-23.259,5.589-34.963,8.047
	c-2.828,0.594-3.54,1.62-3.189,4.307c0.992,7.59,1.881,15.197,2.619,22.814c0.269,2.764,1.105,4.393,4.197,4.249
	c31.634-1.466,63.116-3.921,93.467-13.968c37.19-12.311,60.338-38.367,72.62-74.766c8.044-23.839,11.265-48.568,12.34-73.619
	c0.177-4.098,0.446-8.191,0.709-12.925c-3.083,0-5.554-0.204-7.976,0.049c-3.461,0.361-4.568-1.123-4.938-4.431
	c-2.865-25.646-5.897-51.275-8.867-76.911c-0.875-7.55-1.715-15.104-2.608-22.981c53.792,0,107.045,0,160.651,0
	c0.443,6.591,1.063,13.02,1.277,19.461c1.294,38.951,3.857,77.921,0.917,116.875c-2.78,36.826-9.249,72.93-23.358,107.369
	c-20.863,50.923-56.479,88.129-104.998,113.33c-32.626,16.947-67.617,26.726-103.599,33.297
	c-38.562,7.041-77.474,10.659-116.65,11.129c-25.304,0.305-50.616-0.227-75.919,0.106c-13.851,0.183-25.059-12.06-26.063-24.411
	c-2.007-24.695-5.673-49.254-8.556-73.881c-3.405-29.094-6.653-58.205-10.067-87.297c-3.939-33.554-8.067-67.085-11.962-100.645
	c-3.759-32.397-7.344-64.816-10.958-97.23C934.802-763.017,934.371-768.95,933.806-775.195z"/>
<path fill-rule="evenodd" clip-rule="evenodd" fill="#0E578A" d="M24.056-775.412c11.564,0,23.013,0.049,34.461-0.009
	c36.987-0.187,73.975-0.647,110.961-0.536c23.307,0.07,46.711-0.198,69.897,1.753c46.131,3.882,84.186,22.757,108.484,64.039
	c10.131,17.212,14.857,36.261,16.98,55.965c0.945,8.767,1.24,17.601,2.048,26.385c0.339,3.683-0.601,5.485-4.495,6.729
	c-26.07,8.329-42.635,31.201-42.59,58.229c0.046,27.672,18.456,51.635,45.598,58.369c5.41,1.342,6.25,4.06,6.434,8.561
	c1.894,46.438,3.897,92.873,5.813,139.312c1.133,27.464,2.152,54.933,3.251,82.399c0.22,5.484,0.568,10.965,0.906,17.368
	c-45.749,0-91.276,0-137.182,0c-0.36-6.207-0.85-12.967-1.126-19.735c-1.118-27.298-2.108-54.602-3.261-81.898
	c-1.519-35.949-3.18-71.893-4.714-107.841c-1.13-26.464-2.119-52.935-3.237-79.398c-1.244-29.46-2.433-58.922-3.909-88.37
	c-0.663-13.232-8.029-19.809-21.313-19.838c-12.833-0.027-25.668,0.129-38.498-0.09c-3.728-0.063-5.195,1.17-6.013,4.787
	c-2.752,12.17-5.735,24.293-8.968,36.344c-0.86,3.206,0.056,4.359,2.786,5.628c17.195,7.988,34.274,16.229,51.488,24.175
	c3.543,1.636,4.715,3.057,2.861,7.024c-12.468,26.692-24.591,53.544-37.04,80.245c-7.691,16.497-21.908,21.748-38.497,14.237
	c-41.215-18.662-82.368-37.46-123.516-56.271c-9.771-4.467-9.731-4.59-7.36-14.883c9.676-41.99,19.556-83.936,28.828-126.016
	c1.343-6.097,0.204-12.878-0.501-19.264c-2.761-24.988-5.812-49.945-8.735-74.916C23.823-773.557,23.972-774.211,24.056-775.412z"/>
<path fill-rule="evenodd" clip-rule="evenodd" fill="#0E578A" d="M537.685-775.209c128.605,0,256.52,0,384.877,0
	c0.369,4.85,0.877,9.602,1.072,14.366c1.126,27.458,2.158,54.921,3.262,82.381c0.85,21.13,2.047,42.251,2.582,63.389
	c1.434,56.601-16.736,106.646-51.574,150.838c-27.53,34.922-55.367,69.602-83.078,104.381c-0.397,0.499-0.922,0.897-2.367,2.281
	c-6.596-6.938-13.246-13.675-19.605-20.673c-16.457-18.113-33.093-36.078-49.074-54.605c-13.318-15.441-12.736-38.055-0.46-54.369
	c19.317-25.672,38.423-51.518,57.041-77.699c9.616-13.521,13.752-28.895,12.199-45.814c-1.095-11.924-0.938-23.96-1.392-35.944
	c-0.086-2.288-0.408-4.567-0.656-7.228c-79.676,0-158.941,0-238.757,0C547.06-694.381,542.407-734.494,537.685-775.209z"/>
<path fill-rule="evenodd" clip-rule="evenodd" fill="#0E578A" d="M388.744-650.957c-3.372,0-6.337,0-9.864,0
	c-4.737-41.457-9.437-82.588-14.18-124.105c52.439,0,104.504,0,157.58,0c5.601,133.133,11.204,266.331,16.833,400.127
	c-2.472,0-4.254,0-6.037,0c-33.331,0-66.662-0.202-99.99,0.072c-21.736,0.178-31.785-14.45-32.23-29.834
	c-0.762-26.314-2.174-52.611-3.408-78.91c-0.257-5.48-0.789-10.959-1.454-16.407c-0.365-2.992,0.592-4.387,3.485-5.427
	c27.823-9.995,43.278-33.342,41.768-62.805c-1.303-25.4-20.527-47.456-47.657-54.35c-2.657-0.676-3.521-1.654-3.617-4.22
	C389.68-634.607,389.195-642.392,388.744-650.957z"/>
<path fill-rule="evenodd" clip-rule="evenodd" fill="#0E578A" d="M572.12-256.174c-4.896-116.371-9.781-232.476-14.728-350.045
	c46.165-2.766,91.905-5.506,138.184-8.279c5.079,120.26,10.098,239.127,15.132,358.324
	C664.63-256.174,618.871-256.174,572.12-256.174z"/>
<g>
	<path fill-rule="evenodd" clip-rule="evenodd" fill="#0E578A" d="M930.643,0.689c46.329,0,91.937,0,138.363,0
		c6.045,48.142,12.085,96.249,18.134,144.413c20.103-5.018,27.295-17.355,28.62-39.918c-3.779,0-7.544,0-11.956,0
		c-4.057-34.957-8.059-69.453-12.108-104.355c52.787,0,105.177,0,158.075,0c0.677,13.233,1.601,26.324,1.962,39.431
		c0.708,25.668,0.173,51.302-3.881,76.734c-4.492,28.192-13.312,54.593-31.802,77.057c-16.724,20.319-38.268,33.611-62.805,41.804
		c-16.184,5.402-33.01,8.904-49.601,13.049c-2.501,0.625-3.898,1.074-3.501,4.057c1.034,7.752,1.928,15.526,2.67,23.312
		c0.277,2.921,1.466,4.173,4.405,4.028c30.952-1.519,61.731-3.945,91.551-13.443c38.339-12.211,62.061-38.585,74.521-75.981
		c7.902-23.716,11.071-48.271,12.137-73.151c0.17-3.955,0.477-7.904,0.758-12.478c-4.225,0-7.965,0-12.372,0
		c-4.063-35.002-8.065-69.495-12.116-104.404c53.64,0,106.892,0,160.69,0c0.474,7.101,1.209,14.335,1.395,21.583
		c0.761,29.809,2.274,59.635,1.799,89.427c-0.752,47.059-7.38,93.226-26.214,136.938c-20.961,48.649-55.806,84.209-102.447,108.622
		c-32.594,17.061-67.562,26.934-103.516,33.561c-38.703,7.133-77.793,10.775-117.14,11.239c-24.97,0.294-49.947,0.159-74.92-0.005
		c-16.226-0.105-25.339-8.907-27.188-25.036c-3.752-32.736-7.778-65.441-11.612-98.169c-3.467-29.589-6.785-59.196-10.25-88.785
		c-2.922-24.957-6.068-49.889-8.921-74.854c-3.477-30.422-6.747-60.865-10.111-91.3C932.423,16.476,931.563,8.89,930.643,0.689z"/>
	<path fill-rule="evenodd" clip-rule="evenodd" fill="#0E578A" d="M378.546,519.372c-45.795,0-91.085,0-136.926,0
		c-0.415-7.927-0.921-16.334-1.284-24.746c-1.635-37.94-3.248-75.881-4.83-113.824c-1.104-26.461-2.106-52.926-3.223-79.385
		c-1.56-36.943-3.188-73.885-4.779-110.826c-0.695-16.142-1.196-32.294-2.106-48.423c-0.767-13.589-7.96-20.116-21.529-20.14
		c-12.832-0.023-25.665,0.108-38.493-0.08c-3.472-0.052-4.949,1.002-5.739,4.475c-2.803,12.327-5.839,24.605-9.086,36.823
		c-0.785,2.954-0.046,4.125,2.524,5.321c17.187,8,34.261,16.244,51.493,24.144c4.062,1.862,4.863,3.587,2.888,7.8
		c-12.365,26.367-24.342,52.916-36.651,79.31c-7.937,17.02-21.939,22.11-39.21,14.286c-40.901-18.531-81.744-37.19-122.587-55.849
		c-10.114-4.62-10.089-4.713-7.681-15.153C18.001,150.815,34.714,78.533,51.28,6.218c0.913-3.984,2.481-5.376,6.642-5.396
		c36.815-0.177,73.629-0.84,110.442-0.82C191,0.014,213.731-0.161,236.252,1.737c46.124,3.887,84.192,22.688,108.537,63.93
		c10.151,17.196,14.907,36.237,17.033,55.938c0.981,9.096,1.311,18.26,2.059,27.382c0.253,3.092-0.594,4.547-3.887,5.612
		c-28.02,9.066-44.13,32.527-43.146,62.329c0.846,25.595,20.388,48.661,47.271,55.126c4.45,1.07,4.479,3.784,4.619,6.794
		c0.767,16.472,1.369,32.951,2.06,49.427c1.6,38.108,3.219,76.216,4.828,114.324c1.033,24.463,2.063,48.926,3.082,73.389
		C378.743,516.796,378.636,517.609,378.546,519.372z"/>
	<path fill-rule="evenodd" clip-rule="evenodd" fill="#0E578A" d="M548.74,122.022c-4.713-40.69-9.358-80.791-14.04-121.212
		c128.445,0,256.361,0,384.842,0c0.361,4.62,0.883,9.359,1.08,14.112c1.127,27.293,2.159,54.588,3.26,81.881
		c0.858,21.297,2.061,42.584,2.602,63.889c1.428,56.209-16.33,106.087-50.869,150.074c-27.873,35.498-56.187,70.65-84.313,105.949
		c-0.2,0.252-0.521,0.407-1.308,1.005c-6.63-6.571-13.607-12.956-19.975-19.901c-16.652-18.158-33.343-36.299-49.435-54.951
		c-13.081-15.16-12.485-37.98-0.382-53.979c18.785-24.827,37.252-49.9,55.54-75.098c7.828-10.787,13.143-22.933,13.885-36.409
		c0.491-8.945-0.258-17.964-0.547-26.946c-0.247-7.657-0.843-15.309-0.87-22.965c-0.015-4.314-1.473-5.557-5.843-5.549
		c-75.483,0.138-150.967,0.1-226.45,0.1C553.76,122.022,551.604,122.022,548.74,122.022z"/>
	<path fill-rule="evenodd" clip-rule="evenodd" fill="#0E578A" d="M362.083,0.819c52.205,0,104.286,0,157.193,0
		c5.604,133.222,11.204,266.319,16.836,400.203c-2.232,0-3.989,0-5.746,0c-33.497,0-66.994,0.01-100.491-0.004
		c-19.368-0.009-30.77-10.291-31.818-29.477c-1.445-26.453-2.375-52.936-3.617-79.4c-0.25-5.315-0.76-10.629-1.431-15.908
		c-0.401-3.16,0.522-4.677,3.668-5.783c26.176-9.197,41.83-31.491,41.639-58.949c-0.185-26.679-18.819-50.652-45.054-57.354
		c-4.574-1.169-6.766-2.829-6.586-7.702c0.255-6.939,0.065-13.895,0.065-20.216c-1.508-0.759-1.785-1-2.084-1.033
		c-8.557-0.948-8.845-0.911-9.887-9.558c-2.609-21.652-4.916-43.342-7.374-65.013c-1.746-15.385-3.549-30.763-5.297-46.147
		C361.972,3.362,362.083,2.222,362.083,0.819z"/>
	<path fill-rule="evenodd" clip-rule="evenodd" fill="#0E578A" d="M707.712,519.851c-46.338,0-92.096,0-138.588,0
		c-4.895-116.319-9.78-232.42-14.698-349.282c45.985-4.153,91.687-7.531,138.189-8.124
		C697.649,281.605,702.67,400.479,707.712,519.851z"/>
</g>
</svg>
